<?xml version="1.0" encoding="UTF-8"?>
<svg version="1.1" xmlns="http://www.w3.org/2000/svg" width="1000" height="1000">
<path d="M0 0 C1.38474521 0.00222262 2.76949049 0.00439913 4.15423584 0.00653076 C24.10114822 0.04906769 43.79224805 0.39685559 63.5625 3.3125 C64.25359863 3.41195923 64.94469727 3.51141846 65.65673828 3.6138916 C149.23922663 15.65567248 228.39873664 46.10360504 296.5625 96.3125 C297.19607422 96.77479004 297.82964844 97.23708008 298.48242188 97.71337891 C308.22788831 104.83232329 317.50210562 112.34349902 326.5625 120.3125 C327.32046875 120.96992187 328.0784375 121.62734375 328.859375 122.3046875 C330.77016774 123.9632556 332.66679482 125.6367158 334.5625 127.3125 C335.24642822 127.9115918 335.93035645 128.51068359 336.63500977 129.12792969 C343.49407418 135.20648238 350.00077336 141.59721899 356.46801758 148.08764648 C358.2542467 149.8792595 360.04579347 151.66543055 361.83789062 153.45117188 C367.62510747 159.23467681 373.29858997 165.04120364 378.5625 171.3125 C379.47455809 172.36909624 380.38728994 173.42511136 381.30078125 174.48046875 C438.87793107 242.0178539 479.28246529 325.73999167 496.3125 429.1875 C496.41355042 429.87728943 496.51460083 430.56707886 496.61871338 431.277771 C499.9236663 454.0906057 500.94041253 476.70754666 500.875 499.75 C500.87277738 501.13474521 500.87060087 502.51949049 500.86846924 503.90423584 C500.82593231 523.85114822 500.47814441 543.54224805 497.5625 563.3125 C497.46304077 564.00359863 497.36358154 564.69469727 497.2611084 565.40673828 C485.21932752 648.98922663 454.77139496 728.14873664 404.5625 796.3125 C404.10020996 796.94607422 403.63791992 797.57964844 403.16162109 798.23242188 C396.04267671 807.97788831 388.53150098 817.25210562 380.5625 826.3125 C379.90507813 827.07046875 379.24765625 827.8284375 378.5703125 828.609375 C376.9117444 830.52016774 375.2382842 832.41679482 373.5625 834.3125 C372.9634082 834.99642822 372.36431641 835.68035645 371.74707031 836.38500977 C365.66851762 843.24407418 359.27778101 849.75077336 352.78735352 856.21801758 C350.9957405 858.0042467 349.20956945 859.79579347 347.42382812 861.58789062 C341.64032319 867.37510747 335.83379636 873.04858997 329.5625 878.3125 C328.50590376 879.22455809 327.44988864 880.13728994 326.39453125 881.05078125 C258.8571461 938.62793107 175.13500833 979.03246529 71.6875 996.0625 C70.99771057 996.16355042 70.30792114 996.26460083 69.597229 996.36871338 C46.7843943 999.6736663 24.16745334 1000.69041253 1.125 1000.625 C-0.25974521 1000.62277738 -1.64449049 1000.62060087 -3.02923584 1000.61846924 C-22.97614822 1000.57593231 -42.66724805 1000.22814441 -62.4375 997.3125 C-63.12859863 997.21304077 -63.81969727 997.11358154 -64.53173828 997.0111084 C-148.11422663 984.96932752 -227.27373664 954.52139496 -295.4375 904.3125 C-296.38786133 903.61906494 -296.38786133 903.61906494 -297.35742188 902.91162109 C-307.10288831 895.79267671 -316.37710562 888.28150098 -325.4375 880.3125 C-326.19546875 879.65507813 -326.9534375 878.99765625 -327.734375 878.3203125 C-329.64516774 876.6617444 -331.54179482 874.9882842 -333.4375 873.3125 C-334.12142822 872.7134082 -334.80535645 872.11431641 -335.51000977 871.49707031 C-342.36907418 865.41851762 -348.87577336 859.02778101 -355.34301758 852.53735352 C-357.1292467 850.7457405 -358.92079347 848.95956945 -360.71289062 847.17382812 C-366.50010747 841.39032319 -372.17358997 835.58379636 -377.4375 829.3125 C-378.34955809 828.25590376 -379.26228994 827.19988864 -380.17578125 826.14453125 C-437.75293107 758.6071461 -478.15746529 674.88500833 -495.1875 571.4375 C-495.28855042 570.74771057 -495.38960083 570.05792114 -495.49371338 569.347229 C-498.7986663 546.5343943 -499.81541253 523.91745334 -499.75 500.875 C-499.74777738 499.49025479 -499.74560087 498.10550951 -499.74346924 496.72076416 C-499.70093231 476.77385178 -499.35314441 457.08275195 -496.4375 437.3125 C-496.28831116 436.27585205 -496.28831116 436.27585205 -496.1361084 435.21826172 C-484.09432752 351.63577337 -453.64639496 272.47626336 -403.4375 204.3125 C-402.97520996 203.67892578 -402.51291992 203.04535156 -402.03662109 202.39257812 C-394.91767671 192.64711169 -387.40650098 183.37289438 -379.4375 174.3125 C-378.78007812 173.55453125 -378.12265625 172.7965625 -377.4453125 172.015625 C-375.7867444 170.10483226 -374.1132842 168.20820518 -372.4375 166.3125 C-371.5388623 165.28660767 -371.5388623 165.28660767 -370.62207031 164.23999023 C-364.54351762 157.38092582 -358.15278101 150.87422664 -351.66235352 144.40698242 C-349.8707405 142.6207533 -348.08456945 140.82920653 -346.29882812 139.03710938 C-340.51532319 133.24989253 -334.70879636 127.57641003 -328.4375 122.3125 C-327.38090376 121.40044191 -326.32488864 120.48771006 -325.26953125 119.57421875 C-257.7321461 61.99706893 -174.01000833 21.59253471 -70.5625 4.5625 C-69.87271057 4.46144958 -69.18292114 4.36039917 -68.472229 4.25628662 C-45.6593943 0.9513337 -23.04245334 -0.06541253 0 0 Z " fill="#002244" transform="translate(499.4375,-0.3125)"/>
<path d="M0 0 C1.1488088 -0.00843994 2.2976176 -0.01687988 3.48123878 -0.02557558 C4.7388129 -0.01956553 5.99638701 -0.01355549 7.29206944 -0.00736332 C8.64504758 -0.01153655 9.99802222 -0.017014 11.35099036 -0.02368313 C15.06789582 -0.03815808 18.78457994 -0.0338867 22.50149763 -0.02651632 C26.51044486 -0.021792 30.5193437 -0.03428796 34.52827549 -0.04453373 C42.38166884 -0.06174147 50.23498225 -0.06255767 58.08838957 -0.05732083 C64.47076014 -0.05328161 70.85310706 -0.05471972 77.23547649 -0.06006908 C78.14338519 -0.06081751 79.05129389 -0.06156593 79.98671498 -0.06233703 C81.83104893 -0.06386848 83.67538287 -0.06540683 85.51971681 -0.066952 C102.82066051 -0.08068415 120.12155901 -0.0752343 137.42250169 -0.06376678 C153.25469867 -0.05383334 169.08677881 -0.06677573 184.91895776 -0.09070098 C201.17099555 -0.1150759 217.42297888 -0.12470383 233.67503458 -0.11804825 C242.80112643 -0.11455249 251.92712839 -0.1168116 261.05320644 -0.13429928 C268.82194718 -0.14900117 276.59053474 -0.14968312 284.35927241 -0.13222837 C288.32359308 -0.12369937 292.28763987 -0.12161486 296.25194645 -0.13687992 C299.88092007 -0.15068086 303.509384 -0.14602381 307.13832778 -0.12664068 C309.07324757 -0.12107773 311.00819301 -0.13519051 312.94306415 -0.14999479 C319.33103343 -0.09554587 323.47181283 -0.02045058 328.27902317 4.38031673 C330.31162668 6.67519167 331.22830002 8.22592789 331.36398411 11.31391048 C330.87238671 17.91956652 328.47735386 21.94132994 324.59152317 27.19281673 C324.01208958 28.0068597 323.43265598 28.82090267 322.8356638 29.65961361 C321.61233356 31.37700633 320.3818823 33.08934649 319.14474583 34.79682064 C316.14040856 38.95697465 313.2151276 43.17188666 310.27902317 47.38031673 C309.09940261 49.06135329 307.91971521 50.74234295 306.73996067 52.42328548 C302.88729919 57.92724107 299.09854528 63.47382484 295.31417942 69.02484798 C291.00632619 75.33611248 286.64900569 81.61194604 282.27902317 87.88031673 C275.71682802 97.29512981 269.21693605 106.75054643 262.74777317 116.22943783 C260.49196834 119.53290202 258.23109814 122.8328592 255.96652317 126.13031673 C255.53879612 126.75325619 255.11106907 127.37619564 254.67038059 128.01801205 C251.84317723 132.12751569 248.99665517 136.2232144 246.14230442 140.31391048 C245.06106297 141.86416927 245.06106297 141.86416927 243.95797825 143.44574642 C242.53095292 145.49042988 241.10245957 147.53408975 239.67233372 149.5766058 C239.01660374 150.51601009 238.36087376 151.45541439 237.68527317 152.42328548 C237.10068333 153.25883968 236.51609348 154.09439388 235.9137888 154.95526791 C231.82201671 161.02509648 230.15324829 165.008307 231.27902317 172.38031673 C233.07549171 175.31454869 234.22313027 176.85237029 237.27902317 178.38031673 C245.75308634 179.88228658 252.34238792 176.50707894 259.68035984 172.71320248 C261.69955346 171.66927754 263.72935308 170.64936537 265.76364231 169.63519955 C267.86928813 168.58543924 269.97427391 167.53460514 272.07585239 166.47672176 C278.89075824 163.04885367 285.78761576 159.82113303 292.71652317 156.63031673 C293.85863255 156.10204281 295.00074192 155.57376888 296.17746067 155.02948666 C301.73459427 152.46248787 307.2992862 149.91237276 312.86886692 147.37250423 C322.06469901 143.17840915 331.21331628 138.96655794 340.22042942 134.38031673 C347.28317466 130.84988707 354.48697343 127.60133383 361.66256809 124.30780697 C367.12547289 121.79683636 372.56786431 119.26685947 377.92746067 116.54047298 C394.32178842 108.23968772 394.32178842 108.23968772 402.27902317 110.38031673 C405.97751094 112.49373832 407.66451393 114.5076399 409.27902317 118.38031673 C409.53202283 120.56298244 409.53202283 120.56298244 409.53629208 122.97873402 C409.54274097 123.90261445 409.54918986 124.82649488 409.55583417 125.77837169 C409.55118837 127.29557109 409.55118837 127.29557109 409.54644871 128.84342098 C409.55097982 129.92066311 409.55551093 130.99790524 409.56017935 132.10779107 C409.57287412 135.72976338 409.5711997 139.35158631 409.56955051 142.97357845 C409.57553256 145.56538748 409.58233736 148.15719472 409.58990574 150.7489996 C409.60652125 157.06579399 409.61201553 163.38255106 409.61313049 169.69936548 C409.61408068 174.83366385 409.6181895 179.9679499 409.62453175 185.10224438 C409.64214544 199.65733156 409.65137038 214.21238924 409.6498708 228.76748715 C409.64979089 229.55221603 409.64971097 230.33694491 409.64962864 231.14545345 C409.64954688 231.93113988 409.64946512 232.71682632 409.64938088 233.52632143 C409.64856788 246.26112167 409.66770871 258.99580367 409.69590537 271.73056971 C409.72462575 284.80497723 409.73844614 297.87932707 409.73671782 310.95376694 C409.73605364 318.29472002 409.74155823 325.63554913 409.76307392 332.97647381 C409.783176 339.87935468 409.78262067 346.78196941 409.76804066 353.68486309 C409.76594423 356.22051532 409.77070271 358.75618371 409.78276157 361.29180813 C409.79814138 364.74926477 409.78895299 368.20580895 409.77349949 371.6632452 C409.78378662 372.67025002 409.79407374 373.67725485 409.8046726 374.71477497 C409.74660749 380.58022923 409.16349302 383.89874819 405.27902317 388.38031673 C400.95926049 391.31910161 396.3000147 391.15711445 391.27902317 390.38031673 C387.27104988 388.93345237 383.51694859 387.10239185 379.7360239 385.14237118 C377.85021565 384.16492746 375.95370307 383.21188402 374.05270481 382.26434994 C372.07076322 381.27644602 370.08949526 380.28745667 368.111619 379.29143429 C361.71293602 376.0717475 355.22628336 373.0559499 348.71652317 370.06781673 C346.3944424 368.99590939 344.07284022 367.92296478 341.75167942 366.84906673 C341.15801579 366.57440578 340.56435215 366.29974483 339.95269871 366.01676083 C332.16672782 362.40913898 324.41127275 358.73667146 316.65402317 355.06781673 C315.90106968 354.7117535 315.14811619 354.35569027 314.37234592 353.98883724 C311.3152489 352.54315914 308.25815352 351.09747757 305.20114231 349.651618 C296.83631626 345.6962933 288.4643497 341.75617075 280.09152317 337.81781673 C279.41216709 337.49824001 278.73281101 337.17866329 278.03286839 336.84940243 C277.37272739 336.53886929 276.7125864 336.22833614 276.03244114 335.90839291 C275.38098118 335.60180248 274.72952122 335.29521206 274.05832005 334.97933102 C272.7704122 334.37387829 271.48200792 333.76948033 270.19308567 333.16619015 C266.68848999 331.5240772 263.19709143 329.85850446 259.71701145 328.1649847 C258.95490864 327.79752636 258.19280582 327.43006802 257.40760899 327.05147457 C255.94322814 326.34498433 254.48184117 325.63224141 253.02409458 324.91216183 C247.84460248 322.42565049 243.02855836 320.79661243 237.27902317 322.38031673 C234.34479122 324.17678528 232.80696962 325.32442384 231.27902317 328.38031673 C230.08405813 334.56456878 231.1035125 338.7946559 234.59152317 344.00531673 C235.73398513 345.57844498 236.87748321 347.15099006 238.04318333 348.70697689 C239.74707475 351.01406338 241.3517417 353.38364871 242.96286106 355.75604916 C248.64369901 364.11555341 254.4565374 372.38570952 260.2341013 380.67841244 C264.97346544 387.48705279 269.67093446 394.32285271 274.34494114 401.17645931 C278.61987761 407.43660961 282.94408207 413.66160272 287.27902317 419.88031673 C293.83397468 429.28483938 300.32654648 438.72996723 306.78830051 448.19867611 C309.15330327 451.65980691 311.52819587 455.11411098 313.90402317 458.56781673 C314.34319065 459.20662777 314.78235813 459.8454388 315.23483372 460.50360775 C317.61057506 463.95847567 319.99004522 467.41073207 322.37277317 470.86078548 C322.87985813 471.59595394 323.38694309 472.3311224 323.90939426 473.08856869 C324.88521469 474.50320545 325.86205726 475.91713784 326.84005833 477.33026791 C330.49550023 482.63248166 331.58446803 484.81165594 330.78292942 491.12250423 C330.05336813 494.39139126 328.72951044 496.13403673 326.27902317 498.38031673 C322.59712357 500.17420695 319.64882002 500.63177578 315.57366371 500.63758564 C314.42833831 500.64403453 313.28301291 500.65048342 312.10298067 500.65712774 C310.84929751 500.65403053 309.59561434 500.65093333 308.30394077 500.64774227 C306.95508935 500.65147937 305.60624008 500.65608113 304.25739425 500.66147292 C300.55193519 500.67371073 296.84656637 500.67344155 293.1410917 500.67108417 C289.14442163 500.6706762 285.14778057 500.68171308 281.151124 500.6911993 C273.32181146 500.70781386 265.49252902 500.71330903 257.66320033 500.71442406 C251.30037981 500.71537419 244.93756923 500.71948271 238.57475185 500.72582531 C220.53930974 500.7434379 202.50389143 500.75266399 184.46844066 500.75116436 C183.49609646 500.75108445 182.52375227 500.75100454 181.52194309 500.7509222 C180.54841343 500.75084044 179.57488377 500.75075868 178.57185321 500.75067444 C162.78815915 500.74986123 147.00456046 500.76900769 131.22089399 500.79719894 C115.01858211 500.8259099 98.81631677 500.83974026 82.6139788 500.83801138 C73.51582623 500.83734693 64.41777366 500.84286362 55.31964397 500.86436749 C47.57469947 500.88255564 39.82990031 500.88694604 32.08494372 500.87334864 C28.13276884 500.86680736 24.18087301 500.86674336 20.22872448 500.88405514 C16.61086192 500.89973984 12.99350074 500.89697003 9.37565076 500.87948687 C7.44668868 500.87494743 5.51771133 500.8901103 3.58880907 500.90596616 C-2.76659201 500.85504475 -6.97243721 500.81992112 -11.72097683 496.38031673 C-14.422432 492.23808548 -15.17704581 489.27705735 -14.72097683 484.38031673 C-13.24441433 481.43500423 -13.24441433 481.43500423 -11.09597683 478.25531673 C-10.70136257 477.66476498 -10.30674831 477.07421322 -9.90017605 476.46576595 C-8.52538268 474.42415352 -7.12618741 472.40110848 -5.72097683 470.38031673 C-5.18537136 469.60752377 -4.64976589 468.8347308 -4.09792995 468.03851986 C-1.14702469 463.78962191 1.82189365 459.55376388 4.80246067 455.32562923 C7.82709372 451.03233524 10.81340447 446.71451273 13.77902317 442.38031673 C17.90704394 436.35294689 22.08358502 430.3609393 26.27902317 424.38031673 C30.43098297 418.46100642 34.56665815 412.53193076 38.65402317 406.56781673 C43.06489622 400.13252288 47.50953612 393.72125694 51.96652317 387.31781673 C52.64134739 386.3480389 53.31617161 385.37826107 54.01144505 384.37909603 C57.50700692 379.35732035 61.00620187 374.33811034 64.50949192 369.32172298 C73.45332028 356.50664083 73.45332028 356.50664083 82.21652317 343.56781673 C82.62370579 342.95744564 83.0308884 342.34707455 83.45040989 341.71820736 C86.64171945 336.89954126 87.95920286 334.30759689 87.27902317 328.38031673 C85.73951749 325.40119696 84.12273722 323.17474592 81.27902317 321.38031673 C74.78497402 319.79173834 70.36826947 320.53541152 64.55246067 323.61469173 C63.85076756 323.96358959 63.14907444 324.31248745 62.4261179 324.67195797 C60.15817164 325.80497763 57.9067209 326.96732117 55.65402317 328.13031673 C54.07721268 328.92386921 52.49923811 329.71511263 50.92013645 330.50409603 C47.79158136 332.06945967 44.66812116 333.64428847 41.54855442 335.2274847 C36.12607271 337.9721588 30.64764525 340.59401682 25.15402317 343.19281673 C23.34646868 344.05424463 21.53917521 344.91622046 19.73214817 345.77875423 C18.8459177 346.20124447 17.95968723 346.6237347 17.0466013 347.05902767 C11.99524265 349.47063256 6.94988154 351.89473038 1.90402317 354.31781673 C0.85770725 354.81998714 -0.18860867 355.32215755 -1.26663113 355.83954525 C-6.40037426 358.30378941 -11.53274516 360.770819 -16.66238308 363.24359798 C-30.58806084 369.95083106 -44.55817839 376.55925557 -58.55081081 383.12543392 C-59.26266537 383.45963345 -59.97451992 383.79383297 -60.70794582 384.13815975 C-62.04583477 384.76614279 -63.3839362 385.3936734 -64.72228909 386.02066708 C-67.17258605 387.17065724 -69.61325316 388.32472665 -72.01882839 389.56610775 C-75.38827506 391.1778554 -79.08495202 390.79010128 -82.72097683 390.38031673 C-86.10383877 389.05658815 -87.3442386 387.95425611 -89.32955933 384.92973232 C-91.21955057 380.10848753 -91.13945891 375.84872511 -91.10865688 370.71466732 C-91.11404242 369.6397999 -91.11942796 368.56493247 -91.12497669 367.45749331 C-91.13928522 363.85547948 -91.13214522 360.25383164 -91.12502956 356.65180111 C-91.13073155 354.06954814 -91.13769514 351.48729769 -91.14582729 348.90505123 C-91.16301349 342.61925699 -91.16385579 336.33356271 -91.15861439 330.04775107 C-91.15457154 324.9387626 -91.15601761 319.82980367 -91.16136265 314.72081661 C-91.16211107 313.99344188 -91.16285949 313.26606715 -91.16363059 312.51665077 C-91.16516208 311.03896335 -91.16670043 309.56127594 -91.16824556 308.08358854 C-91.18196965 294.23009609 -91.17653329 280.37666014 -91.16506035 266.52316898 C-91.15512544 253.84992255 -91.1680732 241.17682207 -91.19199454 228.50359815 C-91.21637715 215.4878812 -91.22599565 202.47223224 -91.21934181 189.4564929 C-91.21584805 182.15022982 -91.21809207 174.84407903 -91.23559284 167.53783321 C-91.25184106 160.66938569 -91.24714631 153.80122182 -91.2282877 146.93278217 C-91.224592 144.41003315 -91.22773863 141.88726358 -91.23817348 139.36453342 C-91.25131716 135.92468612 -91.23989353 132.48577282 -91.22218227 129.04596615 C-91.23178728 128.04421651 -91.24139229 127.04246688 -91.25128835 126.01036119 C-91.19071349 120.30499312 -90.63948664 116.84806816 -86.72097683 112.38031673 C-82.12931832 109.31921106 -78.09989359 109.57968473 -72.72097683 110.38031673 C-68.38495652 111.93895903 -64.32663277 113.92302913 -60.2474966 116.04578304 C-58.22820359 117.09657974 -56.19716254 118.12060251 -54.16116238 119.13861752 C-52.0536154 120.19259794 -49.94688041 121.24788111 -47.84397793 122.31110287 C-41.31030476 125.61274099 -34.68760268 128.70419447 -28.03347683 131.75531673 C-17.3608345 136.67880149 -6.72094353 141.66746785 3.90402317 146.69281673 C5.42469143 147.41189715 6.945362 148.13097267 8.46603489 148.8500433 C10.75998386 149.93480091 13.05392481 151.01957541 15.34780979 152.10446835 C23.03233062 155.73813699 30.72196299 159.36091784 38.41323948 162.9802618 C39.83423199 163.64895128 41.25517352 164.31774909 42.67605686 164.98667049 C43.34441563 165.30131252 44.01277439 165.61595455 44.70138645 165.94013119 C45.35755955 166.24922924 46.01373264 166.55832729 46.68978977 166.87679195 C47.97941073 167.48285132 49.27000435 168.08684576 50.56161594 168.68865108 C53.83331013 170.21489443 57.08171045 171.77436116 60.30783176 173.39496517 C60.97058613 173.72120876 61.63334049 174.04745235 62.31617832 174.38358212 C64.13852426 175.28164092 65.95356546 176.19447978 67.76803684 177.10834408 C72.03795862 178.65526658 74.76507416 178.73848782 79.27902317 178.38031673 C82.41083126 176.75641624 84.52242061 175.37765648 86.65402317 172.56781673 C87.86033572 168.3457228 88.16029076 165.18008857 86.16964817 161.11469173 C84.31476637 158.12116962 82.33040856 155.24059796 80.27902317 152.38031673 C79.80706516 151.720639 79.33510715 151.06096127 78.84884739 150.3812933 C76.68186399 147.36164754 74.5062528 144.34849644 72.31906223 141.3434515 C68.75402653 136.44482461 65.25796968 131.50862692 61.84152317 126.50531673 C55.99226119 117.94074662 50.04223646 109.44847332 44.08615208 100.95795345 C42.28791487 98.3929996 40.49202061 95.82642308 38.69699192 93.25922298 C33.23998176 85.45513587 27.77566916 77.65655108 22.27902317 69.88031673 C16.79259634 62.11853967 11.33807639 54.33472238 5.89230442 46.54437923 C3.39519684 42.97278356 0.89183582 39.40567082 -1.61550808 35.84125423 C-2.25053249 34.93737972 -2.88555691 34.03350521 -3.53982449 33.10224056 C-4.7556058 31.37196804 -5.97266116 29.6425898 -7.19119167 27.91425228 C-15.53714114 16.02622611 -15.53714114 16.02622611 -14.72097683 9.38031673 C-11.329666 2.84890329 -7.36016196 0.00764154 0 0 Z " fill="#FEFEFE" transform="translate(340.7209768295288,249.61968326568604)"/>
</svg>
